<svg id="svg" version="1.1" xmlns="http://www.w3.org/2000/svg" xmlns:xlink="http://www.w3.org/1999/xlink" width="400" height="418.22222222222223" viewBox="0, 0, 400,418.22222222222223"><g id="svgg"><path id="path0" d="M200.183 18.506 C 200.079 18.778,200.041 45.190,200.097 77.200 L 200.200 135.400 204.400 135.651 C 238.575 137.696,264.873 169.846,260.026 203.654 C 256.079 231.182,232.068 253.867,205.200 255.450 C 203.330 255.560,201.394 255.733,200.899 255.833 L 199.997 256.016 200.099 314.508 L 200.200 373.000 203.200 372.954 C 212.834 372.805,224.094 365.525,229.821 355.742 C 239.157 339.791,241.660 335.717,248.218 325.800 C 276.244 283.414,304.787 257.503,356.600 227.412 C 371.445 218.790,377.299 209.756,377.342 195.400 C 377.384 181.232,371.333 171.654,357.149 163.438 C 296.323 128.202,265.974 97.759,230.806 36.703 C 225.281 27.111,216.101 20.300,206.727 18.839 C 201.712 18.057,200.379 17.989,200.183 18.506 M189.457 136.429 C 153.581 142.744,131.259 180.017,142.773 214.382 C 150.331 236.941,172.333 253.954,195.900 255.460 L 200.000 255.722 200.000 195.661 L 200.000 135.600 196.900 135.632 C 195.195 135.650,191.846 136.009,189.457 136.429 " stroke="none" fill="#fc3707" fill-rule="evenodd"></path><path id="path1" d="M196.000 18.413 C 184.769 19.741,175.783 25.891,169.425 36.600 C 161.122 50.585,158.017 55.598,152.560 63.833 C 149.194 68.912,145.590 74.222,144.551 75.633 C 143.512 77.045,141.933 79.190,141.042 80.400 C 117.699 112.101,87.704 137.727,45.800 161.769 C 33.626 168.755,29.893 172.290,26.002 180.523 C 19.639 193.985,22.247 209.031,32.783 219.637 C 36.132 223.010,37.362 223.861,46.600 229.206 C 100.025 260.116,132.069 291.420,162.468 342.400 C 164.764 346.250,168.068 351.797,169.811 354.727 C 176.482 365.943,185.376 371.944,197.100 373.142 L 200.000 373.438 200.000 314.779 L 200.000 256.120 196.065 255.862 C 147.875 252.704,122.400 196.424,152.096 158.723 C 162.874 145.039,180.763 135.464,196.000 135.224 C 197.210 135.205,198.605 135.081,199.100 134.948 L 200.000 134.707 200.000 76.353 C 200.000 21.025,199.964 18.003,199.300 18.053 C 198.915 18.081,197.430 18.244,196.000 18.413 M281.800 107.200 C 282.883 108.300,283.860 109.200,283.970 109.200 C 284.080 109.200,283.283 108.300,282.200 107.200 C 281.117 106.100,280.140 105.200,280.030 105.200 C 279.920 105.200,280.717 106.100,281.800 107.200 M287.200 112.525 C 287.200 112.594,287.785 113.179,288.500 113.825 L 289.800 115.000 288.625 113.700 C 287.530 112.488,287.200 112.216,287.200 112.525 M200.400 195.400 L 200.400 255.200 202.771 255.200 C 211.007 255.200,221.816 252.039,230.000 247.237 C 248.596 236.325,260.051 216.692,260.129 195.600 L 260.157 188.200 258.483 181.631 C 253.221 160.977,237.005 143.927,217.400 138.434 C 214.980 137.756,212.460 137.026,211.800 136.811 C 210.830 136.495,202.902 135.617,200.900 135.603 C 200.502 135.601,200.400 147.825,200.400 195.400 " stroke="none" fill="#fbb48c" fill-rule="evenodd"></path><path id="path2" d="M0.000 209.000 L 0.000 418.000 200.000 418.000 L 400.000 418.000 400.000 209.000 L 400.000 0.000 200.000 0.000 L 0.000 0.000 0.000 209.000 M206.465 18.175 C 217.270 20.101,225.471 26.543,232.469 38.600 C 236.696 45.882,240.633 52.361,243.661 57.020 C 245.084 59.209,246.778 61.828,247.424 62.839 C 249.126 65.501,252.003 69.718,254.673 73.463 C 255.953 75.257,257.620 77.597,258.378 78.663 C 276.520 104.159,300.409 126.528,331.200 146.848 C 336.541 150.374,345.262 155.869,349.800 158.571 C 365.179 167.724,365.288 167.796,367.833 170.493 C 385.106 188.804,380.334 214.878,357.400 227.502 C 352.015 230.466,340.556 237.465,334.000 241.795 C 324.367 248.158,322.024 249.781,316.568 253.874 C 313.690 256.034,310.270 258.599,308.968 259.576 C 303.841 263.421,294.178 271.809,288.047 277.734 C 270.442 294.750,254.649 315.331,237.196 344.000 C 236.593 344.990,235.418 347.060,234.586 348.600 C 233.753 350.140,232.844 351.670,232.567 352.000 C 232.290 352.330,231.588 353.547,231.008 354.705 C 221.065 374.542,194.377 379.709,177.600 365.045 C 173.824 361.744,171.614 358.825,167.728 352.000 C 157.577 334.174,147.261 318.665,135.421 303.428 C 123.634 288.258,109.525 274.019,94.241 261.870 C 78.072 249.016,62.297 238.484,40.562 226.029 C 21.278 214.979,16.351 190.608,29.943 173.504 C 33.254 169.337,35.424 167.582,42.197 163.592 C 75.564 143.937,96.907 128.290,115.017 110.210 C 124.413 100.828,131.939 92.083,140.843 80.200 C 148.412 70.099,159.300 53.384,166.508 40.800 C 176.937 22.591,189.942 15.228,206.465 18.175 " stroke="none" fill="#f8f7f7" fill-rule="evenodd"></path><path id="path3" d="M195.400 18.031 C 194.080 18.212,192.190 18.637,191.200 18.976 C 190.210 19.314,189.850 19.502,190.400 19.392 C 190.950 19.282,192.660 18.997,194.200 18.759 C 199.895 17.878,200.763 17.694,199.200 17.698 C 198.430 17.700,196.720 17.850,195.400 18.031 M202.100 17.876 C 202.485 17.976,203.115 17.976,203.500 17.876 C 203.885 17.775,203.570 17.693,202.800 17.693 C 202.030 17.693,201.715 17.775,202.100 17.876 M184.700 21.425 C 183.215 22.187,182.000 22.901,182.000 23.011 C 182.000 23.189,187.560 20.527,187.967 20.153 C 188.514 19.651,187.037 20.225,184.700 21.425 M176.639 26.834 C 175.415 27.953,173.853 29.618,173.168 30.534 C 172.076 31.997,172.145 31.956,173.735 30.200 C 174.731 29.100,176.413 27.439,177.473 26.508 C 178.533 25.578,179.280 24.813,179.132 24.808 C 178.985 24.804,177.863 25.715,176.639 26.834 M224.400 27.725 C 224.400 27.794,224.985 28.379,225.700 29.025 L 227.000 30.200 225.825 28.900 C 224.730 27.688,224.400 27.416,224.400 27.725 M170.475 34.100 C 169.229 35.923,167.660 38.862,168.288 38.200 C 168.877 37.578,172.036 32.400,171.825 32.400 C 171.723 32.400,171.115 33.165,170.475 34.100 M167.081 39.900 C 166.989 40.065,166.409 41.100,165.791 42.200 C 165.174 43.300,164.854 44.020,165.081 43.800 C 165.660 43.239,167.722 39.600,167.462 39.600 C 167.344 39.600,167.172 39.735,167.081 39.900 M162.165 48.100 C 160.351 51.138,160.103 51.679,161.065 50.501 C 161.958 49.408,164.123 45.600,163.852 45.600 C 163.745 45.600,162.986 46.725,162.165 48.100 M156.626 56.972 C 153.481 61.817,152.664 63.200,152.946 63.200 C 153.042 63.200,154.008 61.805,155.095 60.100 C 156.181 58.395,157.734 55.965,158.547 54.700 C 159.360 53.435,159.928 52.400,159.810 52.400 C 159.692 52.400,158.259 54.458,156.626 56.972 M149.507 67.900 C 147.165 71.261,146.425 72.454,147.087 71.800 C 147.753 71.142,152.083 64.800,151.867 64.800 C 151.757 64.800,150.695 66.195,149.507 67.900 M145.200 74.200 C 144.519 75.190,144.052 76.000,144.162 76.000 C 144.272 76.000,144.919 75.190,145.600 74.200 C 146.281 73.210,146.748 72.400,146.638 72.400 C 146.528 72.400,145.881 73.210,145.200 74.200 M141.944 78.700 C 140.675 80.232,140.219 80.942,140.681 80.665 C 141.193 80.358,142.969 78.000,142.689 78.000 C 142.598 78.000,142.263 78.315,141.944 78.700 M138.975 82.668 C 138.359 83.476,138.059 84.011,138.309 83.856 C 138.821 83.540,140.553 81.200,140.275 81.200 C 140.176 81.200,139.591 81.861,138.975 82.668 M136.400 86.000 C 135.703 86.880,135.223 87.600,135.333 87.600 C 135.443 87.600,136.103 86.880,136.800 86.000 C 137.497 85.120,137.977 84.400,137.867 84.400 C 137.757 84.400,137.097 85.120,136.400 86.000 M134.159 88.900 C 132.407 90.921,131.887 91.600,132.090 91.600 C 132.207 91.600,132.967 90.790,133.779 89.800 C 135.281 87.966,135.579 87.263,134.159 88.900 M129.349 94.684 C 128.277 95.940,127.609 96.839,127.864 96.683 C 128.423 96.339,131.754 92.400,131.486 92.400 C 131.382 92.400,130.420 93.428,129.349 94.684 M126.800 97.724 C 126.470 97.999,125.752 98.758,125.205 99.411 C 124.536 100.212,124.765 100.083,125.905 99.019 C 127.432 97.594,127.803 97.174,127.500 97.213 C 127.445 97.220,127.130 97.450,126.800 97.724 M121.986 103.100 L 119.800 105.400 122.100 103.214 C 124.237 101.182,124.583 100.800,124.286 100.800 C 124.224 100.800,123.189 101.835,121.986 103.100 M115.142 110.123 C 112.644 112.611,108.980 116.092,107.000 117.860 C 101.763 122.536,99.789 124.416,101.600 123.001 C 105.679 119.815,120.656 105.600,119.934 105.600 C 119.797 105.600,117.641 107.635,115.142 110.123 M290.783 115.700 C 291.764 116.745,292.619 117.600,292.683 117.600 C 292.984 117.600,292.666 117.241,290.900 115.583 L 289.000 113.800 290.783 115.700 M297.600 121.725 C 297.600 121.794,298.185 122.379,298.900 123.025 L 300.200 124.200 299.025 122.900 C 297.930 121.688,297.600 121.416,297.600 121.725 M97.375 126.244 L 95.400 128.088 97.500 126.407 C 99.375 124.906,99.873 124.400,99.475 124.400 C 99.406 124.400,98.461 125.230,97.375 126.244 M92.893 129.754 C 89.801 132.249,89.411 132.823,92.283 130.655 C 94.371 129.078,95.627 127.916,95.124 128.027 C 95.056 128.042,94.052 128.819,92.893 129.754 M87.600 133.846 C 86.610 134.619,85.530 135.538,85.200 135.888 C 84.870 136.238,85.725 135.676,87.100 134.639 C 88.475 133.602,89.600 132.674,89.600 132.577 C 89.600 132.299,89.506 132.359,87.600 133.846 M79.600 139.648 C 77.730 140.964,75.930 142.325,75.600 142.672 C 74.856 143.454,81.500 138.952,82.589 137.936 C 83.891 136.722,83.177 137.130,79.600 139.648 M71.659 145.194 C 68.950 146.970,66.859 148.634,68.400 147.788 C 69.683 147.084,74.800 143.565,74.800 143.388 C 74.800 143.126,74.916 143.059,71.659 145.194 M64.600 149.843 C 63.060 150.855,60.045 152.762,57.900 154.081 C 54.328 156.276,52.712 157.502,54.900 156.357 C 56.391 155.577,67.600 148.349,67.600 148.168 C 67.600 147.882,67.479 147.950,64.600 149.843 M51.293 158.172 C 50.134 158.891,49.054 159.629,48.893 159.811 C 48.451 160.310,52.511 157.982,53.186 157.349 C 54.053 156.536,53.635 156.718,51.293 158.172 M45.700 161.426 C 43.812 162.558,43.377 163.149,45.100 162.241 C 46.309 161.603,47.916 160.431,47.600 160.417 C 47.490 160.412,46.635 160.866,45.700 161.426 M36.144 167.349 C 34.855 168.311,33.080 169.881,32.200 170.838 C 30.659 172.513,30.681 172.503,32.800 170.574 C 34.010 169.473,35.855 167.962,36.900 167.218 C 38.654 165.969,39.051 165.600,38.644 165.600 C 38.558 165.600,37.433 166.387,36.144 167.349 M367.000 170.000 C 368.306 171.320,369.465 172.400,369.575 172.400 C 369.685 172.400,368.706 171.320,367.400 170.000 C 366.094 168.680,364.935 167.600,364.825 167.600 C 364.715 167.600,365.694 168.680,367.000 170.000 M29.200 174.400 C 28.503 175.280,28.023 176.000,28.133 176.000 C 28.243 176.000,28.903 175.280,29.600 174.400 C 30.297 173.520,30.777 172.800,30.667 172.800 C 30.557 172.800,29.897 173.520,29.200 174.400 M25.980 179.640 C 25.302 180.983,24.814 182.147,24.894 182.228 C 24.975 182.308,25.615 181.210,26.317 179.787 C 27.018 178.364,27.507 177.200,27.402 177.200 C 27.297 177.200,26.657 178.298,25.980 179.640 M22.665 189.174 C 22.260 191.201,21.876 195.813,22.132 195.580 C 22.265 195.459,22.555 193.760,22.777 191.804 C 23.180 188.259,23.122 186.892,22.665 189.174 M22.514 198.200 C 22.517 199.300,22.595 199.703,22.687 199.095 C 22.779 198.486,22.777 197.586,22.682 197.095 C 22.587 196.603,22.511 197.100,22.514 198.200 M24.616 208.000 C 26.103 213.174,33.487 222.170,38.411 224.806 C 39.728 225.511,39.295 224.969,37.694 223.910 C 33.257 220.974,28.840 215.843,26.065 210.402 C 25.110 208.531,24.458 207.450,24.616 208.000 M40.200 225.800 C 41.093 226.541,45.229 228.706,44.600 228.103 C 44.380 227.892,43.120 227.139,41.800 226.429 C 40.480 225.718,39.760 225.436,40.200 225.800 M48.600 230.596 C 49.494 231.339,52.028 232.709,51.400 232.110 C 51.180 231.900,50.280 231.324,49.400 230.830 C 48.520 230.335,48.160 230.230,48.600 230.596 M56.600 235.407 C 57.040 235.766,57.760 236.235,58.200 236.451 L 59.000 236.844 58.200 236.193 C 57.760 235.834,57.040 235.365,56.600 235.149 L 55.800 234.756 56.600 235.407 M60.400 237.741 C 60.400 237.844,61.525 238.632,62.900 239.493 C 66.238 241.582,66.400 241.674,66.400 241.479 C 66.400 241.387,65.275 240.594,63.900 239.718 C 60.728 237.697,60.400 237.511,60.400 237.741 M68.000 242.562 C 68.000 242.672,68.810 243.319,69.800 244.000 C 70.790 244.681,71.600 245.148,71.600 245.038 C 71.600 244.928,70.790 244.281,69.800 243.600 C 68.810 242.919,68.000 242.452,68.000 242.562 M72.000 245.361 C 72.000 245.540,75.585 248.066,77.100 248.954 C 78.459 249.751,77.333 248.731,75.300 247.324 C 72.519 245.399,72.000 245.090,72.000 245.361 M79.000 250.192 C 79.660 250.772,81.010 251.789,82.000 252.452 C 83.478 253.441,83.586 253.473,82.600 252.629 C 81.940 252.063,80.590 251.046,79.600 250.368 C 78.085 249.332,77.990 249.304,79.000 250.192 M84.131 253.888 C 84.280 254.129,85.346 255.003,86.501 255.830 C 87.655 256.658,88.383 257.071,88.118 256.748 C 87.485 255.978,83.779 253.319,84.131 253.888 M88.800 257.333 C 88.800 257.460,90.555 258.949,92.700 260.642 C 94.845 262.334,96.915 263.990,97.300 264.321 C 97.685 264.653,98.000 264.815,98.000 264.682 C 98.000 264.548,96.155 262.960,93.900 261.152 C 88.711 256.991,88.800 257.058,88.800 257.333 M98.560 265.097 C 98.715 265.370,100.678 267.152,102.921 269.057 C 105.165 270.963,108.957 274.429,111.349 276.761 C 113.740 279.092,115.540 280.716,115.349 280.368 C 114.927 279.603,108.212 273.237,103.800 269.419 C 102.040 267.896,100.077 266.189,99.438 265.625 C 98.799 265.061,98.404 264.823,98.560 265.097 M300.175 266.500 L 299.000 267.800 300.300 266.625 C 301.015 265.979,301.600 265.394,301.600 265.325 C 301.600 265.016,301.270 265.288,300.175 266.500 M287.992 277.500 L 284.200 281.400 288.100 277.608 C 291.722 274.086,292.182 273.600,291.892 273.600 C 291.833 273.600,290.078 275.355,287.992 277.500 M117.050 282.062 C 117.242 282.426,119.307 284.766,121.639 287.262 C 126.135 292.076,132.646 299.779,136.571 304.929 C 137.875 306.640,139.135 308.156,139.371 308.297 C 139.662 308.471,139.658 308.368,139.360 307.977 C 131.489 297.653,115.431 279.002,117.050 282.062 M280.585 284.900 L 278.600 287.000 280.700 285.015 C 281.855 283.923,282.800 282.978,282.800 282.915 C 282.800 282.617,282.429 282.949,280.585 284.900 M276.400 289.400 C 275.428 290.390,274.723 291.200,274.833 291.200 C 274.943 291.200,275.828 290.390,276.800 289.400 C 277.772 288.410,278.477 287.600,278.367 287.600 C 278.257 287.600,277.372 288.410,276.400 289.400 M140.372 309.900 C 140.833 310.505,142.653 313.025,144.417 315.500 C 147.548 319.892,149.323 321.880,146.740 318.100 C 144.351 314.605,139.996 308.800,139.763 308.800 C 139.637 308.800,139.910 309.295,140.372 309.900 M150.439 324.100 C 154.684 330.487,155.728 332.000,155.890 332.000 C 156.109 332.000,155.904 331.674,151.920 325.700 C 149.976 322.785,148.294 320.400,148.183 320.400 C 148.071 320.400,149.086 322.065,150.439 324.100 M156.609 333.426 C 156.981 334.101,157.641 335.091,158.076 335.626 L 158.867 336.600 158.191 335.374 C 157.819 334.699,157.159 333.709,156.724 333.174 L 155.933 332.200 156.609 333.426 M160.349 339.400 C 160.565 339.840,161.034 340.560,161.393 341.000 L 162.044 341.800 161.651 341.000 C 161.435 340.560,160.966 339.840,160.607 339.400 L 159.956 338.600 160.349 339.400 M165.664 348.400 C 172.239 360.372,176.397 365.292,183.154 369.093 C 185.911 370.643,191.701 372.804,193.000 372.766 C 193.440 372.754,192.579 372.395,191.086 371.969 C 180.714 369.011,175.015 363.974,167.815 351.400 C 165.534 347.417,163.782 344.973,165.664 348.400 M197.505 373.483 C 198.002 373.579,198.722 373.575,199.105 373.475 C 199.487 373.375,199.080 373.296,198.200 373.301 C 197.320 373.305,197.007 373.387,197.505 373.483 " stroke="none" fill="#f8d0bf" fill-rule="evenodd"></path><path id="path4" d="M202.305 18.283 C 202.802 18.379,203.522 18.375,203.905 18.275 C 204.287 18.175,203.880 18.096,203.000 18.101 C 202.120 18.105,201.807 18.187,202.305 18.283 M224.400 28.200 C 225.595 29.410,226.663 30.400,226.773 30.400 C 226.883 30.400,225.995 29.410,224.800 28.200 C 223.605 26.990,222.537 26.000,222.427 26.000 C 222.317 26.000,223.205 26.990,224.400 28.200 M274.400 99.400 C 275.146 100.170,275.847 100.800,275.957 100.800 C 276.067 100.800,275.546 100.170,274.800 99.400 C 274.054 98.630,273.353 98.000,273.243 98.000 C 273.133 98.000,273.654 98.630,274.400 99.400 M278.200 103.600 C 279.059 104.480,279.852 105.200,279.962 105.200 C 280.072 105.200,279.459 104.480,278.600 103.600 C 277.741 102.720,276.948 102.000,276.838 102.000 C 276.728 102.000,277.341 102.720,278.200 103.600 M284.000 109.725 C 284.000 109.794,284.585 110.379,285.300 111.025 L 286.600 112.200 285.425 110.900 C 284.330 109.688,284.000 109.416,284.000 109.725 M194.648 135.261 C 192.254 135.458,190.004 135.805,189.648 136.034 C 189.148 136.354,189.274 136.398,190.200 136.225 C 190.860 136.103,193.335 135.885,195.700 135.741 L 200.000 135.480 200.000 195.522 L 200.000 255.563 197.500 255.726 C 196.125 255.816,197.340 255.819,200.200 255.732 C 205.287 255.579,211.812 254.879,211.458 254.525 C 211.360 254.427,209.899 254.538,208.211 254.773 C 206.523 255.008,204.076 255.200,202.772 255.200 L 200.403 255.200 200.301 195.105 C 200.212 142.028,200.130 135.005,199.600 134.957 C 199.270 134.928,197.042 135.065,194.648 135.261 M204.100 135.887 C 204.705 135.978,205.695 135.978,206.300 135.887 C 206.905 135.795,206.410 135.720,205.200 135.720 C 203.990 135.720,203.495 135.795,204.100 135.887 M211.800 136.763 C 212.240 136.964,214.400 137.618,216.600 138.216 C 218.800 138.814,220.870 139.384,221.200 139.482 C 221.683 139.625,221.676 139.580,221.167 139.248 C 220.819 139.021,219.019 138.399,217.167 137.866 C 213.316 136.757,210.532 136.185,211.800 136.763 M180.021 138.429 C 178.162 139.072,176.452 139.805,176.221 140.058 C 175.910 140.398,176.009 140.438,176.600 140.212 C 177.040 140.043,179.110 139.299,181.200 138.557 C 183.290 137.815,184.640 137.220,184.200 137.234 C 183.760 137.248,181.879 137.786,180.021 138.429 M171.930 142.010 C 170.241 142.873,168.740 143.774,168.593 144.012 C 168.387 144.344,174.783 141.153,175.567 140.532 C 176.262 139.981,174.486 140.703,171.930 142.010 M224.000 140.544 C 224.000 140.670,225.575 141.566,227.500 142.534 C 235.241 146.426,244.416 154.384,249.370 161.500 C 251.808 165.003,252.729 165.942,250.939 163.100 C 247.797 158.110,241.618 151.596,236.039 147.391 C 231.970 144.325,224.000 139.792,224.000 140.544 M164.900 146.385 C 157.177 151.808,149.074 161.368,145.107 169.736 C 143.306 173.536,143.856 172.905,146.158 168.533 C 150.338 160.589,157.136 152.639,164.200 147.432 C 167.743 144.820,168.262 144.400,167.943 144.400 C 167.823 144.400,166.454 145.293,164.900 146.385 M252.079 165.500 C 254.065 169.600,255.757 172.776,255.886 172.648 C 256.093 172.441,252.474 165.200,252.163 165.200 C 252.037 165.200,251.999 165.335,252.079 165.500 M367.400 170.800 C 368.483 171.900,369.460 172.800,369.570 172.800 C 369.680 172.800,368.883 171.900,367.800 170.800 C 366.717 169.700,365.740 168.800,365.630 168.800 C 365.520 168.800,366.317 169.700,367.400 170.800 M142.844 174.973 C 141.857 177.613,140.388 183.089,140.429 183.975 C 140.445 184.319,140.884 183.070,141.404 181.200 C 141.924 179.330,142.722 176.735,143.176 175.434 C 144.232 172.410,143.950 172.018,142.844 174.973 M257.218 176.400 C 257.215 176.510,257.838 179.030,258.603 182.000 C 259.368 184.970,259.897 186.680,259.779 185.800 C 259.352 182.627,257.263 174.961,257.218 176.400 M139.454 190.256 C 139.126 192.651,139.167 198.952,139.523 200.958 C 139.675 201.815,139.800 199.340,139.800 195.458 C 139.800 187.583,139.807 187.685,139.454 190.256 M260.093 190.000 C 260.093 190.770,260.175 191.085,260.276 190.700 C 260.376 190.315,260.376 189.685,260.276 189.300 C 260.175 188.915,260.093 189.230,260.093 190.000 M377.701 195.000 C 377.705 195.880,377.787 196.193,377.883 195.695 C 377.979 195.198,377.975 194.478,377.875 194.095 C 377.775 193.713,377.696 194.120,377.701 195.000 M260.101 201.000 C 260.105 201.880,260.187 202.193,260.283 201.695 C 260.379 201.198,260.375 200.478,260.275 200.095 C 260.175 199.713,260.096 200.120,260.101 201.000 M258.359 209.535 C 257.566 212.761,256.969 215.462,257.031 215.539 C 257.235 215.789,258.765 210.450,259.431 207.167 C 260.490 201.939,259.910 203.220,258.359 209.535 M140.431 206.836 C 140.356 208.373,143.411 218.322,143.830 217.904 C 143.913 217.820,143.616 216.793,143.171 215.620 C 142.725 214.448,141.934 211.849,141.411 209.844 C 140.889 207.840,140.448 206.486,140.431 206.836 M254.071 221.516 C 252.919 223.872,252.264 225.440,252.616 225.000 C 253.392 224.030,256.518 217.584,256.312 217.379 C 256.232 217.299,255.223 219.160,254.071 221.516 M144.013 218.463 C 143.972 219.280,146.727 224.551,148.952 227.910 C 155.659 238.037,166.660 247.361,176.454 251.221 C 179.798 252.539,179.193 252.081,174.800 249.969 C 162.619 244.112,152.348 234.171,146.113 222.205 C 144.966 220.002,144.021 218.318,144.013 218.463 M362.600 223.835 L 361.400 224.866 362.700 224.006 C 363.415 223.533,364.000 223.068,364.000 222.973 C 364.000 222.673,363.831 222.778,362.600 223.835 M250.759 227.467 C 246.690 234.050,237.350 242.951,230.100 247.154 C 227.162 248.857,226.115 249.775,228.500 248.556 C 236.515 244.460,247.920 233.745,251.551 226.900 C 252.316 225.458,251.750 225.863,250.759 227.467 M223.600 250.379 C 222.170 250.983,220.134 251.793,219.076 252.181 C 218.017 252.568,217.229 252.962,217.324 253.057 C 217.556 253.290,223.405 251.134,225.400 250.080 C 227.608 248.914,226.722 249.061,223.600 250.379 M179.200 252.138 C 179.200 253.027,192.019 255.956,193.851 255.485 C 194.291 255.372,194.056 255.274,193.283 255.246 C 190.918 255.163,182.767 253.283,179.749 252.125 C 179.447 252.009,179.200 252.015,179.200 252.138 M213.600 253.800 C 212.610 254.087,212.070 254.336,212.400 254.353 C 212.730 254.370,213.900 254.134,215.000 253.828 C 216.100 253.522,216.640 253.273,216.200 253.275 C 215.760 253.277,214.590 253.513,213.600 253.800 M287.591 277.500 L 284.200 281.000 287.700 277.609 C 290.951 274.459,291.382 274.000,291.091 274.000 C 291.031 274.000,289.456 275.575,287.591 277.500 M280.187 284.900 L 277.800 287.400 280.300 285.013 C 281.675 283.699,282.800 282.574,282.800 282.513 C 282.800 282.217,282.405 282.578,280.187 284.900 M275.375 290.100 L 274.200 291.400 275.500 290.225 C 276.712 289.130,276.984 288.800,276.675 288.800 C 276.606 288.800,276.021 289.385,275.375 290.100 M223.775 363.700 L 222.600 365.000 223.900 363.825 C 225.112 362.730,225.384 362.400,225.075 362.400 C 225.006 362.400,224.421 362.985,223.775 363.700 M200.000 373.280 C 200.000 373.456,200.630 373.600,201.400 373.600 C 202.170 373.600,202.800 373.530,202.800 373.444 C 202.800 373.358,202.170 373.214,201.400 373.124 C 200.630 373.034,200.000 373.104,200.000 373.280 " stroke="none" fill="#fc9c70" fill-rule="evenodd"></path></g></svg>